<svg xmlns="http://www.w3.org/2000/svg" xmlns:xlink="http://www.w3.org/1999/xlink" width="500" zoomAndPan="magnify" viewBox="0 0 375 374.999991" height="500" preserveAspectRatio="xMidYMid meet" version="1.0"><defs><g/></defs><g fill="#ff5757" fill-opacity="1"><g transform="translate(116.257668, 317.259774)"><g><path d="M 73.703125 13.9375 C 73.367188 13.9375 73.203125 13.609375 73.203125 12.953125 C 73.203125 12.285156 73.367188 11.867188 73.703125 11.703125 L 73.953125 12.703125 C 73.953125 13.523438 73.867188 13.9375 73.703125 13.9375 Z M 68.21875 9.46875 L 69.21875 8.71875 C 69.21875 8.050781 69.050781 7.632812 68.71875 7.46875 C 68.226562 7.800781 67.984375 8.132812 67.984375 8.46875 Z M 68.21875 2.484375 C 68.382812 2.484375 68.800781 1.941406 69.46875 0.859375 C 70.132812 -0.210938 70.46875 -1.160156 70.46875 -1.984375 C 70.46875 -2.984375 70.300781 -3.484375 69.96875 -3.484375 C 69.632812 -3.484375 69.21875 -2.648438 68.71875 -0.984375 C 68.226562 0.671875 67.898438 1.660156 67.734375 1.984375 C 67.898438 2.316406 68.0625 2.484375 68.21875 2.484375 Z M 68.71875 -7.21875 C 69.050781 -7.21875 69.300781 -7.425781 69.46875 -7.84375 C 69.632812 -8.257812 69.71875 -8.550781 69.71875 -8.71875 C 69.71875 -9.382812 69.59375 -9.960938 69.34375 -10.453125 C 69.09375 -10.953125 68.882812 -11.203125 68.71875 -11.203125 L 68.96875 -8.96875 C 68.96875 -8.632812 68.882812 -8.382812 68.71875 -8.21875 C 68.226562 -8.550781 67.941406 -9.085938 67.859375 -9.828125 C 67.773438 -10.578125 67.648438 -11.035156 67.484375 -11.203125 C 67.148438 -10.867188 66.984375 -10.453125 66.984375 -9.953125 C 66.984375 -9.460938 67.1875 -8.882812 67.59375 -8.21875 C 68.007812 -7.550781 68.382812 -7.21875 68.71875 -7.21875 Z M 67.234375 -17.1875 C 67.398438 -17.1875 67.566406 -17.347656 67.734375 -17.671875 C 67.398438 -18.503906 67.066406 -18.921875 66.734375 -18.921875 C 66.566406 -18.921875 66.398438 -18.753906 66.234375 -18.421875 C 66.566406 -17.597656 66.898438 -17.1875 67.234375 -17.1875 Z M 59.515625 -31.625 C 59.847656 -34.613281 60.175781 -36.273438 60.5 -36.609375 L 61 -36.109375 L 61.25 -36.109375 C 60.914062 -37.429688 60.75 -38.585938 60.75 -39.578125 C 60.75 -40.578125 60.664062 -41.078125 60.5 -41.078125 C 60.34375 -41.078125 60.097656 -40.578125 59.765625 -39.578125 C 59.429688 -38.585938 59.265625 -37.347656 59.265625 -35.859375 C 59.265625 -34.691406 59.347656 -33.28125 59.515625 -31.625 Z M 52.296875 -60.75 C 52.617188 -60.75 52.78125 -60.914062 52.78125 -61.25 C 52.78125 -61.914062 52.367188 -62.75 51.546875 -63.75 C 51.710938 -61.75 51.960938 -60.75 52.296875 -60.75 Z M 69.71875 -69.71875 C 70.050781 -69.882812 70.21875 -70.21875 70.21875 -70.71875 C 69.882812 -71.550781 69.550781 -71.96875 69.21875 -71.96875 L 68.96875 -71.46875 C 68.96875 -70.800781 69.21875 -70.21875 69.71875 -69.71875 Z M 62.25 -92.875 C 62.75 -93.375 63 -93.875 63 -94.375 L 62.75 -95.359375 C 62.25 -94.703125 62 -94.125 62 -93.625 Z M 38.59375 -98.609375 C 38.59375 -98.609375 38.59375 -98.773438 38.59375 -99.109375 C 38.425781 -100.597656 38.09375 -101.507812 37.59375 -101.84375 L 37.59375 -100.84375 C 37.59375 -100.507812 37.71875 -100.050781 37.96875 -99.46875 C 38.21875 -98.894531 38.425781 -98.609375 38.59375 -98.609375 Z M 39.84375 -101.09375 C 40.175781 -101.09375 40.671875 -101.835938 41.328125 -103.328125 C 41.003906 -103.828125 40.257812 -104.078125 39.09375 -104.078125 C 38.59375 -104.078125 38.34375 -103.910156 38.34375 -103.578125 C 38.84375 -101.921875 39.34375 -101.09375 39.84375 -101.09375 Z M 58.765625 -102.34375 C 59.265625 -102.34375 59.515625 -103.585938 59.515625 -106.078125 C 59.515625 -107.734375 59.179688 -108.5625 58.515625 -108.5625 C 58.515625 -108.5625 58.515625 -108.144531 58.515625 -107.3125 C 58.515625 -104 58.597656 -102.34375 58.765625 -102.34375 Z M 31.375 -124.5 C 31.707031 -124.832031 31.875 -125.828125 31.875 -127.484375 C 31.875 -129.148438 31.539062 -129.984375 30.875 -129.984375 C 30.207031 -129.484375 29.789062 -128.648438 29.625 -127.484375 C 29.625 -126.660156 29.832031 -126.207031 30.25 -126.125 C 30.664062 -126.039062 30.914062 -125.789062 31 -125.375 C 31.082031 -124.957031 31.207031 -124.664062 31.375 -124.5 Z M 90.640625 -129.734375 C 90.972656 -129.734375 91.300781 -130.394531 91.625 -131.71875 L 91.140625 -131.96875 C 90.472656 -131.96875 90.140625 -131.304688 90.140625 -129.984375 Z M 26.890625 -136.203125 C 27.722656 -136.203125 28.140625 -136.703125 28.140625 -137.703125 C 28.140625 -139.023438 27.554688 -139.6875 26.390625 -139.6875 C 26.054688 -139.6875 25.890625 -139.4375 25.890625 -138.9375 C 25.890625 -137.113281 26.222656 -136.203125 26.890625 -136.203125 Z M 122.015625 -141.1875 C 123.003906 -141.6875 123.582031 -142.265625 123.75 -142.921875 L 123.5 -143.171875 C 123.164062 -143.171875 122.671875 -142.507812 122.015625 -141.1875 Z M 21.171875 -150.890625 L 21.40625 -151.390625 C 21.40625 -152.554688 20.992188 -154.050781 20.171875 -155.875 C 19.503906 -156.875 19.085938 -157.375 18.921875 -157.375 C 18.753906 -157.375 18.671875 -157.207031 18.671875 -156.875 C 18.835938 -155.875 19.335938 -154.460938 20.171875 -152.640625 C 20.671875 -151.472656 21.003906 -150.890625 21.171875 -150.890625 Z M 15.9375 -154.875 C 16.9375 -154.875 17.4375 -156.203125 17.4375 -158.859375 C 17.4375 -159.859375 17.226562 -160.6875 16.8125 -161.34375 C 16.394531 -162.007812 16.101562 -162.34375 15.9375 -162.34375 C 15.601562 -162.34375 15.4375 -161.515625 15.4375 -159.859375 L 15.4375 -158.609375 C 15.4375 -157.941406 15.351562 -157.609375 15.1875 -157.609375 L 14.6875 -157.609375 C 14.6875 -155.785156 15.101562 -154.875 15.9375 -154.875 Z M 36.859375 -167.578125 C 37.515625 -167.578125 37.925781 -167.660156 38.09375 -167.828125 C 38.09375 -168.816406 37.84375 -169.3125 37.34375 -169.3125 L 36.859375 -169.078125 C 36.523438 -168.910156 36.273438 -168.660156 36.109375 -168.328125 L 35.859375 -167.828125 C 35.859375 -167.660156 36.023438 -167.578125 36.359375 -167.578125 Z M 110.3125 -179.03125 L 111.046875 -181.515625 C 111.046875 -181.847656 110.96875 -182.015625 110.8125 -182.015625 C 110.476562 -181.515625 110.3125 -180.9375 110.3125 -180.28125 C 110.3125 -179.445312 110.3125 -179.03125 110.3125 -179.03125 Z M 112.296875 -185 C 112.960938 -185.5 113.296875 -186 113.296875 -186.5 L 113.046875 -187.25 C 112.378906 -186.914062 112.046875 -186.414062 112.046875 -185.75 C 112.046875 -185.414062 112.128906 -185.164062 112.296875 -185 Z M 135.203125 -200.203125 C 134.378906 -201.023438 133.925781 -201.894531 133.84375 -202.8125 C 133.757812 -203.726562 133.632812 -204.1875 133.46875 -204.1875 C 132.800781 -203.519531 132.46875 -202.851562 132.46875 -202.1875 C 132.46875 -201.851562 132.675781 -201.4375 133.09375 -200.9375 C 133.507812 -200.445312 133.960938 -200.203125 134.453125 -200.203125 Z M 135.203125 -206.171875 C 135.703125 -206.503906 135.953125 -206.835938 135.953125 -207.171875 L 135.453125 -208.15625 C 134.953125 -207.664062 134.703125 -207.253906 134.703125 -206.921875 C 134.703125 -206.585938 134.867188 -206.335938 135.203125 -206.171875 Z M 135.703125 -166.578125 C 134.546875 -167.410156 133.96875 -168.078125 133.96875 -168.578125 C 133.96875 -169.066406 134.378906 -169.3125 135.203125 -169.3125 L 135.453125 -169.078125 C 135.617188 -169.078125 135.828125 -169.40625 136.078125 -170.0625 C 136.328125 -170.726562 136.535156 -171.722656 136.703125 -173.046875 C 136.867188 -174.378906 137.117188 -175.210938 137.453125 -175.546875 C 137.785156 -175.878906 137.988281 -176.832031 138.0625 -178.40625 C 138.144531 -179.988281 138.929688 -182.144531 140.421875 -184.875 C 141.921875 -187.613281 142.710938 -189.976562 142.796875 -191.96875 C 142.878906 -193.96875 143.378906 -195.421875 144.296875 -196.328125 C 145.210938 -197.242188 145.671875 -197.703125 145.671875 -197.703125 C 146.328125 -197.703125 146.65625 -197.125 146.65625 -195.96875 C 146.65625 -195.132812 146.40625 -193.597656 145.90625 -191.359375 C 145.414062 -189.117188 144.753906 -187.332031 143.921875 -186 C 143.085938 -184.675781 142.171875 -182.476562 141.171875 -179.40625 C 140.179688 -176.332031 139.394531 -174.671875 138.8125 -174.421875 C 138.238281 -174.171875 137.867188 -173.878906 137.703125 -173.546875 C 137.703125 -171.890625 137.035156 -169.566406 135.703125 -166.578125 Z M 26.390625 -198.953125 C 26.054688 -198.953125 25.804688 -199.035156 25.640625 -199.203125 C 26.140625 -200.023438 27.140625 -200.851562 28.640625 -201.6875 C 27.640625 -199.863281 26.890625 -198.953125 26.390625 -198.953125 Z M 76.1875 -85.65625 C 76.519531 -91.800781 77.101562 -96.53125 77.9375 -99.84375 C 79.101562 -104.5 79.722656 -107.570312 79.796875 -109.0625 C 79.878906 -110.550781 80.085938 -111.378906 80.421875 -111.546875 C 81.421875 -111.546875 82.003906 -112.957031 82.171875 -115.78125 C 86.484375 -118.601562 88.390625 -120.015625 87.890625 -120.015625 L 87.640625 -120.015625 L 86.90625 -122.75 C 86.90625 -125.570312 87.148438 -128.3125 87.640625 -130.96875 C 88.140625 -133.625 89.71875 -137.523438 92.375 -142.671875 C 95.03125 -147.816406 96.523438 -150.554688 96.859375 -150.890625 C 97.191406 -151.222656 97.523438 -152.800781 97.859375 -155.625 C 98.191406 -158.445312 98.6875 -160.4375 99.34375 -161.59375 C 100.007812 -162.757812 101.046875 -165.789062 102.453125 -170.6875 C 103.867188 -175.582031 105.988281 -180.109375 108.8125 -184.265625 L 114.046875 -189.984375 L 114.296875 -188.734375 C 114.296875 -187.910156 114.457031 -187.414062 114.78125 -187.25 C 114.945312 -187.414062 115.945312 -189.40625 117.78125 -193.21875 C 117.78125 -191.226562 117.945312 -190.234375 118.28125 -190.234375 C 118.9375 -190.734375 119.515625 -192.019531 120.015625 -194.09375 C 120.515625 -196.164062 121.675781 -198.863281 123.5 -202.1875 C 124.832031 -204.675781 125.5 -206.171875 125.5 -206.671875 C 125.5 -206.835938 125.414062 -206.921875 125.25 -206.921875 C 125.25 -207.585938 126.203125 -209.617188 128.109375 -213.015625 C 130.015625 -216.421875 131.21875 -218.125 131.71875 -218.125 C 132.382812 -218.125 132.71875 -217.378906 132.71875 -215.890625 L 133.21875 -214.390625 C 133.550781 -215.054688 133.882812 -215.390625 134.21875 -215.390625 C 134.707031 -215.390625 135.117188 -214.804688 135.453125 -213.640625 L 135.203125 -212.640625 C 135.203125 -211.484375 135.867188 -210.570312 137.203125 -209.90625 L 139.1875 -209.90625 C 140.019531 -209.90625 140.4375 -209.488281 140.4375 -208.65625 C 140.101562 -204.34375 139.4375 -201.269531 138.4375 -199.4375 C 137.445312 -197.613281 136.953125 -195.707031 136.953125 -193.71875 C 136.953125 -192.0625 137.035156 -191.234375 137.203125 -191.234375 C 137.367188 -191.234375 137.570312 -191.5625 137.8125 -192.21875 C 138.0625 -192.882812 138.601562 -194.421875 139.4375 -196.828125 C 140.269531 -199.234375 141.019531 -200.6875 141.6875 -201.1875 C 142.34375 -201.1875 142.671875 -200.859375 142.671875 -200.203125 C 142.671875 -199.535156 142.175781 -198.367188 141.1875 -196.703125 C 138.863281 -191.722656 137.535156 -188.03125 137.203125 -185.625 C 136.867188 -183.21875 136.367188 -181.765625 135.703125 -181.265625 C 135.035156 -180.773438 134.703125 -179.78125 134.703125 -178.28125 C 134.703125 -177.945312 134.785156 -177.78125 134.953125 -177.78125 C 135.117188 -177.78125 135.367188 -177.863281 135.703125 -178.03125 L 136.203125 -178.28125 C 136.367188 -178.28125 136.453125 -178.113281 136.453125 -177.78125 C 136.117188 -175.789062 135.617188 -174.003906 134.953125 -172.421875 C 134.296875 -170.847656 133.59375 -168.859375 132.84375 -166.453125 C 132.09375 -164.046875 131.382812 -162.757812 130.71875 -162.59375 C 130.0625 -162.425781 129.484375 -161.515625 128.984375 -159.859375 L 129.234375 -159.609375 C 129.398438 -160.109375 129.566406 -160.359375 129.734375 -160.359375 C 130.066406 -160.359375 130.234375 -159.691406 130.234375 -158.359375 C 130.234375 -153.046875 129.484375 -149.5625 127.984375 -147.90625 L 128.234375 -150.140625 C 128.234375 -150.640625 128.148438 -150.972656 127.984375 -151.140625 C 127.648438 -150.640625 127.441406 -149.226562 127.359375 -146.90625 C 127.273438 -144.582031 126.984375 -143.253906 126.484375 -142.921875 C 125.992188 -142.585938 124.75 -141.050781 122.75 -138.3125 C 120.757812 -135.582031 119.765625 -133.425781 119.765625 -131.84375 C 119.765625 -130.269531 119.140625 -128.28125 117.890625 -125.875 C 116.648438 -123.46875 116.03125 -121.847656 116.03125 -121.015625 C 116.03125 -120.179688 115.738281 -119.390625 115.15625 -118.640625 C 114.582031 -117.898438 113.628906 -115.703125 112.296875 -112.046875 C 110.972656 -108.398438 109.851562 -105.410156 108.9375 -103.078125 C 108.019531 -100.753906 107.4375 -98.390625 107.1875 -95.984375 C 106.945312 -93.578125 106.367188 -91.003906 105.453125 -88.265625 C 104.535156 -85.523438 103.992188 -83.570312 103.828125 -82.40625 C 103.660156 -81.25 103.242188 -80.046875 102.578125 -78.796875 C 101.921875 -77.554688 100.84375 -72.039062 99.34375 -62.25 C 96.195312 -42.820312 94.375 -30.375 93.875 -24.90625 C 92.875 -16.9375 91.582031 -11.414062 90 -8.34375 C 88.425781 -5.269531 87.515625 -3.148438 87.265625 -1.984375 C 87.023438 -0.828125 86.738281 -0.25 86.40625 -0.25 C 86.238281 -0.25 86.070312 -0.414062 85.90625 -0.75 C 85.738281 -1.082031 85.570312 -1.25 85.40625 -1.25 C 85.238281 -1.25 84.945312 -0.628906 84.53125 0.609375 C 84.113281 1.859375 83.570312 2.773438 82.90625 3.359375 C 82.25 3.941406 81.753906 4.234375 81.421875 4.234375 L 81.171875 4.234375 L 81.421875 1.984375 C 81.421875 0.828125 81.335938 0.164062 81.171875 0 L 80.921875 0 C 80.753906 0 80.421875 0.992188 79.921875 2.984375 C 79.429688 4.972656 79.1875 6.300781 79.1875 6.96875 C 79.1875 7.132812 79.269531 7.21875 79.4375 7.21875 L 80.671875 6.46875 C 80.835938 6.46875 80.921875 6.550781 80.921875 6.71875 C 80.585938 8.382812 80.007812 9.21875 79.1875 9.21875 C 79.019531 9.21875 78.894531 9.21875 78.8125 9.21875 C 78.726562 9.21875 78.019531 9.132812 76.6875 8.96875 L 76.9375 11.953125 C 76.269531 11.953125 75.6875 10.414062 75.1875 7.34375 C 74.695312 4.269531 74.453125 2.316406 74.453125 1.484375 C 74.453125 0.660156 73.953125 0.25 72.953125 0.25 C 71.796875 0.25 71.21875 0.910156 71.21875 2.234375 C 71.21875 3.566406 71.503906 4.726562 72.078125 5.71875 C 72.660156 6.71875 72.953125 7.46875 72.953125 7.96875 C 72.953125 8.800781 72.625 9.21875 71.96875 9.21875 C 71.800781 9.21875 71.675781 9.175781 71.59375 9.09375 C 71.507812 9.007812 71.382812 8.96875 71.21875 8.96875 C 71.050781 8.96875 70.882812 9.296875 70.71875 9.953125 C 70.382812 11.453125 69.472656 12.453125 67.984375 12.953125 C 67.816406 12.453125 67.234375 11.328125 66.234375 9.578125 C 65.234375 7.835938 64.359375 6.96875 63.609375 6.96875 C 62.867188 6.96875 62.332031 6.390625 62 5.234375 C 61.164062 1.910156 60.085938 -0.578125 58.765625 -2.234375 C 57.765625 -3.566406 57.054688 -5.1875 56.640625 -7.09375 C 56.234375 -9 55.820312 -10.117188 55.40625 -10.453125 C 54.988281 -10.785156 54.738281 -11.695312 54.65625 -13.1875 C 54.570312 -14.6875 54.03125 -16.890625 53.03125 -19.796875 C 52.039062 -22.703125 51.503906 -24.816406 51.421875 -26.140625 C 51.335938 -27.472656 50.835938 -29.09375 49.921875 -31 C 49.015625 -32.90625 48.476562 -34.359375 48.3125 -35.359375 C 48.144531 -36.359375 47.6875 -37.726562 46.9375 -39.46875 C 46.1875 -41.207031 45.644531 -43.28125 45.3125 -45.6875 C 44.976562 -48.09375 43.734375 -51.742188 41.578125 -56.640625 C 39.421875 -61.546875 38.257812 -64.660156 38.09375 -65.984375 C 37.925781 -67.316406 37.382812 -68.894531 36.46875 -70.71875 C 35.5625 -72.539062 35.066406 -74.238281 34.984375 -75.8125 C 34.898438 -77.394531 34.523438 -78.515625 33.859375 -79.171875 C 33.203125 -79.835938 32.832031 -80.75 32.75 -81.90625 C 32.664062 -83.070312 32 -85.441406 30.75 -89.015625 C 29.507812 -92.585938 28.765625 -95.160156 28.515625 -96.734375 C 28.265625 -98.316406 27.679688 -99.6875 26.765625 -100.84375 C 25.847656 -102.007812 24.804688 -104.832031 23.640625 -109.3125 C 22.484375 -113.789062 21.820312 -116.40625 21.65625 -117.15625 C 21.488281 -117.90625 20.945312 -118.816406 20.03125 -119.890625 C 19.125 -120.972656 18.628906 -122.382812 18.546875 -124.125 C 18.460938 -125.863281 18.007812 -127.316406 17.1875 -128.484375 L 15.6875 -131.46875 C 15.6875 -131.96875 15.269531 -133.046875 14.4375 -134.703125 C 13.613281 -136.367188 13.160156 -137.988281 13.078125 -139.5625 C 12.992188 -141.144531 12.492188 -142.304688 11.578125 -143.046875 C 10.660156 -143.796875 9.535156 -145.992188 8.203125 -149.640625 C 6.878906 -153.296875 6.21875 -155.375 6.21875 -155.875 C 4.226562 -160.351562 3.234375 -163.175781 3.234375 -164.34375 C 3.234375 -166 3.648438 -167.203125 4.484375 -167.953125 C 5.316406 -168.703125 5.894531 -169.078125 6.21875 -169.078125 L 6.46875 -168.828125 L 6.71875 -168.828125 C 6.882812 -168.492188 7.132812 -168.328125 7.46875 -168.328125 L 7.96875 -168.828125 C 8.300781 -168.992188 8.632812 -169.078125 8.96875 -169.078125 C 9.132812 -169.078125 9.300781 -168.992188 9.46875 -168.828125 L 9.71875 -168.828125 C 10.207031 -168.828125 10.828125 -169.238281 11.578125 -170.0625 C 12.328125 -170.894531 12.953125 -171.3125 13.453125 -171.3125 C 13.609375 -171.3125 13.8125 -171.0625 14.0625 -170.5625 C 14.3125 -170.0625 14.519531 -169.8125 14.6875 -169.8125 L 14.6875 -172.0625 C 14.6875 -172.726562 14.894531 -173.679688 15.3125 -174.921875 C 15.726562 -176.171875 15.9375 -177.207031 15.9375 -178.03125 L 15.4375 -181.015625 L 17.1875 -180.28125 C 17.507812 -180.28125 17.753906 -180.609375 17.921875 -181.265625 C 17.921875 -183.429688 18.335938 -184.515625 19.171875 -184.515625 L 19.921875 -184.265625 C 20.910156 -183.597656 21.40625 -183.097656 21.40625 -182.765625 L 21.171875 -182.265625 C 19.671875 -180.941406 18.921875 -179.695312 18.921875 -178.53125 C 18.921875 -177.375 18.628906 -176.503906 18.046875 -175.921875 C 17.472656 -175.335938 17.1875 -174.878906 17.1875 -174.546875 C 17.1875 -174.378906 17.347656 -174.210938 17.671875 -174.046875 C 18.171875 -174.378906 19.003906 -175.296875 20.171875 -176.796875 C 20.671875 -177.617188 20.921875 -178.195312 20.921875 -178.53125 L 20.921875 -178.78125 C 20.921875 -179.613281 21.207031 -180.609375 21.78125 -181.765625 C 22.363281 -182.929688 22.65625 -183.847656 22.65625 -184.515625 L 22.65625 -184.765625 C 22.65625 -185.585938 22.738281 -186 22.90625 -186 C 23.40625 -186 24.316406 -185.335938 25.640625 -184.015625 C 26.304688 -183.347656 26.804688 -183.015625 27.140625 -183.015625 C 27.640625 -183.015625 27.972656 -183.429688 28.140625 -184.265625 L 28.140625 -185.25 L 27.390625 -185 C 26.890625 -185 26.640625 -185.414062 26.640625 -186.25 C 26.640625 -187.414062 27.140625 -188.578125 28.140625 -189.734375 C 28.472656 -190.398438 28.640625 -190.816406 28.640625 -190.984375 C 28.640625 -191.316406 28.472656 -191.484375 28.140625 -191.484375 C 27.472656 -191.316406 26.972656 -190.898438 26.640625 -190.234375 C 26.304688 -189.566406 25.804688 -188.984375 25.140625 -188.484375 C 24.484375 -187.992188 24.070312 -187.75 23.90625 -187.75 C 23.738281 -187.75 23.65625 -187.832031 23.65625 -188 C 24.488281 -192.144531 25.484375 -194.21875 26.640625 -194.21875 C 26.972656 -194.21875 27.472656 -193.96875 28.140625 -193.46875 L 28.640625 -193.21875 L 28.390625 -195.21875 C 28.390625 -196.375 28.59375 -197.367188 29 -198.203125 C 29.414062 -199.035156 29.707031 -199.453125 29.875 -199.453125 L 30.375 -199.203125 C 31.039062 -197.703125 31.375 -196.375 31.375 -195.21875 C 31.375 -194.382812 31.289062 -193.71875 31.125 -193.21875 L 31.125 -192.96875 C 31.457031 -193.46875 31.957031 -193.71875 32.625 -193.71875 C 33.28125 -193.71875 34.023438 -193.222656 34.859375 -192.234375 C 42.660156 -182.097656 48.800781 -170.554688 53.28125 -157.609375 C 55.113281 -151.472656 56.484375 -147.90625 57.390625 -146.90625 C 58.304688 -145.914062 59.21875 -143.507812 60.125 -139.6875 C 61.039062 -135.875 61.539062 -133.632812 61.625 -132.96875 C 61.707031 -132.300781 62.742188 -129.765625 64.734375 -125.359375 C 66.734375 -120.960938 67.773438 -117.644531 67.859375 -115.40625 C 67.941406 -113.164062 68.9375 -110.09375 70.84375 -106.1875 C 72.75 -102.289062 73.703125 -99.097656 73.703125 -96.609375 C 73.703125 -93.785156 73.617188 -91.960938 73.453125 -91.140625 C 73.453125 -89.972656 73.703125 -89.222656 74.203125 -88.890625 C 75.035156 -88.390625 75.695312 -87.3125 76.1875 -85.65625 Z M 76.1875 -85.65625 "/></g></g></g><g fill="#00bf63" fill-opacity="1"><g transform="translate(57.584456, 197.268022)"><g><path d="M 33 -4.640625 L 32.734375 -7.46875 C 32.734375 -8.675781 33.164062 -10.394531 34.03125 -12.625 C 30.59375 -9.707031 28.875 -7.390625 28.875 -5.671875 L 31.1875 -6.1875 C 31.53125 -6.1875 31.832031 -5.96875 32.09375 -5.53125 C 32.351562 -5.101562 32.65625 -4.804688 33 -4.640625 Z M 14.171875 -1.28125 C 14.859375 -1.28125 15.203125 -2.226562 15.203125 -4.125 C 15.203125 -5.5 14.773438 -6.957031 13.921875 -8.5 L 13.40625 -8.25 L 13.40625 -5.921875 C 13.226562 -5.921875 12.835938 -6.476562 12.234375 -7.59375 C 11.640625 -8.71875 11.171875 -9.28125 10.828125 -9.28125 C 10.484375 -9.28125 10.3125 -9.019531 10.3125 -8.5 C 10.3125 -7.8125 10.828125 -6.4375 11.859375 -4.375 C 12.890625 -2.3125 13.660156 -1.28125 14.171875 -1.28125 Z M 9.28125 -10.3125 C 9.625 -10.3125 9.796875 -10.566406 9.796875 -11.078125 C 9.796875 -12.109375 9.28125 -12.625 8.25 -12.625 C 7.90625 -12.625 7.644531 -12.453125 7.46875 -12.109375 C 7.8125 -10.910156 8.414062 -10.3125 9.28125 -10.3125 Z M 11.859375 -78.875 L 12.109375 -81.71875 C 11.941406 -81.71875 11.859375 -81.203125 11.859375 -80.171875 Z M 14.4375 -81.453125 L 14.953125 -81.96875 C 14.953125 -83.34375 14.609375 -84.03125 13.921875 -84.03125 L 13.40625 -83.515625 C 13.570312 -82.140625 13.914062 -81.453125 14.4375 -81.453125 Z M 13.65625 -85.828125 L 13.921875 -86.09375 L 11.859375 -90.46875 L 11.859375 -90.21875 C 11.859375 -89.1875 12.457031 -87.722656 13.65625 -85.828125 Z M 8.765625 -82.234375 C 8.078125 -82.234375 7.734375 -86.785156 7.734375 -95.890625 L 7.734375 -102.078125 C 7.734375 -100.179688 7.644531 -98.929688 7.46875 -98.328125 C 7.300781 -97.734375 7.21875 -97.265625 7.21875 -96.921875 C 7.21875 -94.859375 8.078125 -93.3125 9.796875 -92.28125 C 9.796875 -94.851562 9.625 -96.394531 9.28125 -96.90625 C 8.9375 -97.425781 8.765625 -97.773438 8.765625 -97.953125 L 9.28125 -99.75 C 9.28125 -100.269531 9.148438 -100.785156 8.890625 -101.296875 C 8.628906 -101.816406 8.5 -102.503906 8.5 -103.359375 Z M 7.46875 -83 C 7.46875 -84.207031 7.726562 -84.8125 8.25 -84.8125 C 8.414062 -84.8125 8.585938 -84.550781 8.765625 -84.03125 C 9.453125 -84.03125 9.878906 -84.460938 10.046875 -85.328125 C 9.878906 -86.179688 9.625 -86.648438 9.28125 -86.734375 C 8.9375 -86.816406 8.765625 -86.945312 8.765625 -87.125 L 9.28125 -103.109375 C 9.28125 -90.046875 8.847656 -83.515625 7.984375 -83.515625 Z M 8.5 -92.53125 C 9.363281 -92.707031 9.878906 -93.222656 10.046875 -94.078125 C 9.878906 -95.796875 9.109375 -97.085938 7.734375 -97.953125 C 7.554688 -97.953125 7.46875 -97.609375 7.46875 -96.921875 C 7.46875 -94.515625 7.8125 -93.050781 8.5 -92.53125 Z M 35.3125 -97.4375 C 35.488281 -97.601562 35.578125 -98.117188 35.578125 -98.984375 C 35.578125 -99.835938 35.40625 -100.523438 35.0625 -101.046875 C 34.71875 -100.867188 34.546875 -100.523438 34.546875 -100.015625 C 34.546875 -98.984375 34.800781 -98.125 35.3125 -97.4375 Z M 9.015625 -106.203125 C 10.046875 -106.203125 10.5625 -107.0625 10.5625 -108.78125 C 10.5625 -111.875 10.5625 -114.921875 10.5625 -117.921875 C 10.5625 -120.929688 9.703125 -122.4375 7.984375 -122.4375 C 7.816406 -121.925781 8.25 -120.894531 9.28125 -119.34375 C 9.625 -118.65625 9.796875 -118.140625 9.796875 -117.796875 C 9.796875 -117.109375 9.320312 -116.765625 8.375 -116.765625 C 7.425781 -116.765625 6.953125 -115.476562 6.953125 -112.90625 C 6.953125 -108.78125 7.640625 -106.546875 9.015625 -106.203125 Z M 43.5625 -112.640625 C 44.070312 -112.640625 44.328125 -114.101562 44.328125 -117.03125 C 44.328125 -118.0625 44.242188 -118.832031 44.078125 -119.34375 C 43.734375 -119.34375 43.5625 -118.867188 43.5625 -117.921875 C 43.5625 -116.984375 43.472656 -116.34375 43.296875 -116 C 43.128906 -115.65625 43.046875 -115.3125 43.046875 -114.96875 C 43.046875 -113.414062 43.21875 -112.640625 43.5625 -112.640625 Z M 13.140625 -113.421875 C 13.484375 -113.421875 13.65625 -113.59375 13.65625 -113.9375 C 13.65625 -114.625 12.96875 -115.910156 11.59375 -117.796875 C 11.59375 -115.222656 12.109375 -113.765625 13.140625 -113.421875 Z M 10.3125 -122.953125 C 10.820312 -122.953125 11.078125 -124.15625 11.078125 -126.5625 C 10.910156 -129.820312 10.222656 -131.710938 9.015625 -132.234375 C 7.984375 -132.234375 7.46875 -131.285156 7.46875 -129.390625 C 7.46875 -128.023438 7.851562 -126.609375 8.625 -125.140625 C 9.40625 -123.679688 9.96875 -122.953125 10.3125 -122.953125 Z M 13.40625 -126.3125 C 13.75 -126.3125 13.921875 -126.484375 13.921875 -126.828125 L 13.921875 -127.34375 C 13.921875 -128.195312 14.347656 -129.222656 15.203125 -130.421875 L 15.203125 -130.6875 C 15.203125 -130.851562 14.859375 -130.9375 14.171875 -130.9375 C 12.796875 -130.59375 12.109375 -129.648438 12.109375 -128.109375 C 12.109375 -126.910156 12.539062 -126.3125 13.40625 -126.3125 Z M 44.078125 -128.375 C 44.421875 -128.375 44.59375 -129.144531 44.59375 -130.6875 C 44.59375 -132.0625 44.421875 -133.003906 44.078125 -133.515625 C 43.554688 -133.347656 43.296875 -132.578125 43.296875 -131.203125 C 43.296875 -129.828125 43.554688 -128.882812 44.078125 -128.375 Z M 8.5 -134.03125 C 9.707031 -135.40625 10.3125 -136.609375 10.3125 -137.640625 C 10.3125 -138.503906 10.140625 -139.453125 9.796875 -140.484375 C 9.109375 -142.367188 8.503906 -143.3125 7.984375 -143.3125 C 7.640625 -143.3125 7.46875 -142.796875 7.46875 -141.765625 L 7.46875 -140.484375 L 8.5 -134.8125 Z M 35.3125 -166.515625 L 35.578125 -168.0625 L 35.3125 -170.125 C 35.144531 -170.125 35.0625 -169.4375 35.0625 -168.0625 C 35.0625 -167.375 35.144531 -166.859375 35.3125 -166.515625 Z M 42.796875 -167.03125 L 43.296875 -170.640625 C 43.296875 -172.703125 43.039062 -173.734375 42.53125 -173.734375 C 42.1875 -173.734375 42.015625 -173.21875 42.015625 -172.1875 C 42.015625 -170.8125 42.273438 -169.09375 42.796875 -167.03125 Z M 9.796875 -144.34375 L 10.046875 -144.609375 C 9.015625 -146.328125 8.328125 -147.1875 7.984375 -147.1875 C 7.640625 -147.1875 7.46875 -146.671875 7.46875 -145.640625 L 7.734375 -144.859375 L 8.5 -145.640625 C 8.84375 -145.640625 9.273438 -145.207031 9.796875 -144.34375 Z M 29.390625 -169.875 C 29.554688 -169.875 29.726562 -170.390625 29.90625 -171.421875 L 29.390625 -172.703125 C 29.210938 -172.703125 29.125 -172.101562 29.125 -170.90625 Z M 34.796875 -175.015625 L 35.3125 -175.015625 C 36 -175.015625 36.34375 -175.703125 36.34375 -177.078125 C 36.175781 -177.765625 36.003906 -178.109375 35.828125 -178.109375 C 34.972656 -178.109375 34.546875 -177.335938 34.546875 -175.796875 Z M 38.15625 -178.375 C 37.976562 -178.71875 37.546875 -179.359375 36.859375 -180.296875 C 36.171875 -181.242188 35.65625 -181.71875 35.3125 -181.71875 L 35.0625 -181.71875 C 35.226562 -181.03125 35.695312 -180.300781 36.46875 -179.53125 C 37.25 -178.757812 37.8125 -178.375 38.15625 -178.375 Z M 31.453125 -186.625 C 30.765625 -188.6875 30.332031 -189.71875 30.15625 -189.71875 L 29.90625 -189.203125 C 29.90625 -188.335938 30.421875 -187.476562 31.453125 -186.625 Z M 29.640625 -169.875 L 29.125 -192.296875 C 29.125 -191.773438 29.382812 -191.34375 29.90625 -191 C 30.25 -191.175781 30.421875 -191.519531 30.421875 -192.03125 C 30.421875 -177.257812 30.160156 -169.875 29.640625 -169.875 Z M 79.390625 -2.0625 L 80.171875 -2.0625 C 79.828125 -2.75 79.484375 -3.09375 79.140625 -3.09375 L 78.625 -2.828125 C 78.625 -2.660156 78.878906 -2.40625 79.390625 -2.0625 Z M 83.515625 -8.5 C 84.378906 -8.5 84.984375 -9.101562 85.328125 -10.3125 L 85.0625 -10.3125 C 83.519531 -10.3125 82.75 -9.96875 82.75 -9.28125 C 82.75 -8.757812 83.003906 -8.5 83.515625 -8.5 Z M 103.875 -18.296875 C 104.050781 -18.296875 104.140625 -18.46875 104.140625 -18.8125 C 103.960938 -19.5 103.445312 -20.101562 102.59375 -20.625 C 102.9375 -19.070312 103.363281 -18.296875 103.875 -18.296875 Z M 77.59375 -20.359375 C 78.101562 -20.359375 78.359375 -20.445312 78.359375 -20.625 C 78.359375 -20.789062 78.101562 -21.046875 77.59375 -21.390625 L 77.078125 -20.875 C 77.078125 -20.707031 77.25 -20.535156 77.59375 -20.359375 Z M 82.75 -23.203125 C 83.09375 -23.203125 83.4375 -23.375 83.78125 -23.71875 L 83.265625 -23.96875 C 82.921875 -23.96875 82.578125 -23.796875 82.234375 -23.453125 Z M 85.0625 -24.234375 C 85.0625 -24.234375 85.316406 -24.40625 85.828125 -24.75 C 85.828125 -25.09375 85.570312 -25.265625 85.0625 -25.265625 C 84.550781 -25.265625 84.296875 -25.175781 84.296875 -25 C 84.296875 -24.832031 84.550781 -24.578125 85.0625 -24.234375 Z M 110.578125 -31.453125 C 110.921875 -31.960938 111.09375 -32.5625 111.09375 -33.25 L 110.328125 -31.96875 Z M 120.125 -36.609375 L 120.125 -38.921875 C 119.945312 -38.921875 119.6875 -38.921875 119.34375 -38.921875 C 119 -38.753906 118.65625 -38.410156 118.3125 -37.890625 C 118.488281 -37.035156 119.09375 -36.609375 120.125 -36.609375 Z M 121.921875 -43.046875 L 122.703125 -43.296875 L 121.921875 -44.328125 L 121.40625 -44.078125 C 121.40625 -43.734375 121.578125 -43.390625 121.921875 -43.046875 Z M 92.796875 -52.0625 C 92.796875 -52.0625 92.835938 -52.234375 92.921875 -52.578125 C 93.003906 -52.921875 93.128906 -53.265625 93.296875 -53.609375 C 93.472656 -53.953125 93.5625 -54.210938 93.5625 -54.390625 C 93.5625 -55.242188 93.21875 -55.671875 92.53125 -55.671875 C 92.019531 -55.671875 91.765625 -55.242188 91.765625 -54.390625 C 91.765625 -52.835938 92.109375 -52.0625 92.796875 -52.0625 Z M 121.671875 -52.328125 C 121.835938 -52.328125 121.921875 -52.410156 121.921875 -52.578125 C 121.921875 -52.921875 121.578125 -53.523438 120.890625 -54.390625 C 120.890625 -54.390625 120.804688 -54.128906 120.640625 -53.609375 C 120.640625 -53.097656 120.984375 -52.671875 121.671875 -52.328125 Z M 93.3125 -57.21875 C 94 -57.5625 94.34375 -58.164062 94.34375 -59.03125 L 94.078125 -60.578125 C 93.566406 -61.953125 93.3125 -63.5 93.3125 -65.21875 L 93.5625 -66.25 C 93.5625 -67.28125 93.347656 -68.140625 92.921875 -68.828125 C 92.492188 -69.515625 92.28125 -70.203125 92.28125 -70.890625 L 92.53125 -72.171875 C 92.53125 -73.378906 91.757812 -74.238281 90.21875 -74.75 C 90.039062 -74.75 89.953125 -74.578125 89.953125 -74.234375 C 89.953125 -73.890625 90.253906 -73.03125 90.859375 -71.65625 C 91.460938 -70.28125 91.765625 -69.25 91.765625 -68.5625 L 91.5 -66.765625 C 92.019531 -65.554688 92.28125 -64.523438 92.28125 -63.671875 L 92.015625 -61.859375 C 92.015625 -61.171875 92.1875 -60.398438 92.53125 -59.546875 C 92.707031 -58.171875 92.96875 -57.394531 93.3125 -57.21875 Z M 120.640625 -65.46875 C 121.148438 -65.46875 121.40625 -65.554688 121.40625 -65.734375 C 121.40625 -65.898438 121.144531 -66.066406 120.625 -66.234375 C 120.113281 -66.410156 119.773438 -66.5 119.609375 -66.5 C 119.609375 -65.8125 119.953125 -65.46875 120.640625 -65.46875 Z M 119.609375 -67.28125 C 120.117188 -67.28125 120.375 -67.363281 120.375 -67.53125 C 120.375 -67.707031 120.03125 -67.96875 119.34375 -68.3125 L 119.09375 -67.796875 C 119.09375 -67.617188 119.265625 -67.445312 119.609375 -67.28125 Z M 89.953125 -75.015625 C 90.128906 -75.015625 90.21875 -75.097656 90.21875 -75.265625 C 90.21875 -75.953125 90.128906 -76.46875 89.953125 -76.8125 C 89.785156 -76.8125 89.613281 -76.640625 89.4375 -76.296875 Z M 114.453125 -80.6875 C 114.453125 -81.539062 114.191406 -81.96875 113.671875 -81.96875 C 113.503906 -81.96875 113.421875 -81.882812 113.421875 -81.71875 C 113.421875 -81.375 113.765625 -81.03125 114.453125 -80.6875 Z M 68.3125 -94.078125 L 68.5625 -94.34375 C 68.5625 -94.851562 68.046875 -95.109375 67.015625 -95.109375 C 67.015625 -94.597656 67.445312 -94.253906 68.3125 -94.078125 Z M 63.921875 -95.375 L 62.640625 -95.890625 C 62.640625 -95.546875 63.066406 -95.375 63.921875 -95.375 Z M 50 -96.921875 C 50.34375 -96.921875 50.726562 -97.132812 51.15625 -97.5625 C 51.59375 -97.988281 51.8125 -98.375 51.8125 -98.71875 L 51.546875 -99.234375 C 50.347656 -99.234375 49.660156 -98.632812 49.484375 -97.4375 C 49.660156 -97.09375 49.832031 -96.921875 50 -96.921875 Z M 31.96875 -101.046875 C 32.3125 -101.046875 32.484375 -101.128906 32.484375 -101.296875 C 32.484375 -101.640625 32.265625 -101.894531 31.828125 -102.0625 C 31.398438 -102.238281 31.015625 -102.929688 30.671875 -104.140625 C 30.503906 -104.140625 30.25 -103.835938 29.90625 -103.234375 C 29.5625 -102.628906 29.390625 -102.242188 29.390625 -102.078125 C 29.734375 -101.390625 30.59375 -101.046875 31.96875 -101.046875 Z M 57.734375 -112.640625 L 58 -112.90625 C 58 -113.414062 57.394531 -113.671875 56.1875 -113.671875 L 55.421875 -113.671875 C 55.421875 -113.328125 56.191406 -112.984375 57.734375 -112.640625 Z M 63.671875 -1.546875 C 63.328125 -1.546875 62.507812 -1.890625 61.21875 -2.578125 C 59.925781 -3.265625 59.28125 -3.691406 59.28125 -3.859375 L 59.796875 -4.125 C 60.660156 -3.945312 61.5625 -3.554688 62.5 -2.953125 C 63.445312 -2.359375 63.921875 -1.972656 63.921875 -1.796875 Z M 70.375 -3.34375 C 69.851562 -3.34375 69.421875 -3.515625 69.078125 -3.859375 C 69.078125 -4.035156 69.25 -4.125 69.59375 -4.125 C 70.457031 -4.125 71.0625 -3.953125 71.40625 -3.609375 Z M 4.890625 -92.53125 C 5.410156 -92.875 5.671875 -93.304688 5.671875 -93.828125 C 5.671875 -95.023438 5.5 -95.625 5.15625 -95.625 C 4.976562 -95.625 4.890625 -94.59375 4.890625 -92.53125 Z M 74.5 0.765625 C 72.4375 0.765625 71.359375 0.59375 71.265625 0.25 C 71.179688 -0.0820312 70.625 -0.25 69.59375 -0.25 C 68.5625 -0.25 67.53125 -0.851562 66.5 -2.0625 C 66.5 -2.570312 66.585938 -2.828125 66.765625 -2.828125 C 67.273438 -2.828125 67.742188 -2.566406 68.171875 -2.046875 C 68.609375 -1.535156 70.972656 -1.28125 75.265625 -1.28125 C 76.472656 -1.28125 77.078125 -1.453125 77.078125 -1.796875 C 77.078125 -1.972656 76.816406 -2.273438 76.296875 -2.703125 C 75.785156 -3.128906 75.097656 -3.382812 74.234375 -3.46875 C 73.378906 -3.5625 72.78125 -3.863281 72.4375 -4.375 C 72.4375 -4.71875 72.953125 -4.890625 73.984375 -4.890625 C 76.734375 -4.890625 78.109375 -5.234375 78.109375 -5.921875 C 78.109375 -6.265625 77.765625 -6.609375 77.078125 -6.953125 C 76.390625 -7.296875 75.875 -7.46875 75.53125 -7.46875 L 76.046875 -6.703125 C 76.046875 -6.015625 71.40625 -5.671875 62.125 -5.671875 C 58.851562 -5.671875 56.957031 -6.054688 56.4375 -6.828125 C 55.925781 -7.597656 55.414062 -7.984375 54.90625 -7.984375 C 54.5625 -7.984375 54.390625 -7.8125 54.390625 -7.46875 C 54.390625 -6.4375 54.644531 -5.835938 55.15625 -5.671875 C 56.363281 -5.671875 56.96875 -5.5 56.96875 -5.15625 C 56.96875 -4.632812 56.707031 -4.375 56.1875 -4.375 C 54.125 -4.375 49.398438 -7.898438 42.015625 -14.953125 C 41.160156 -12.546875 39.703125 -7.90625 37.640625 -1.03125 C 36.953125 -1.03125 36.390625 -0.390625 35.953125 0.890625 C 35.523438 2.179688 35.097656 3.039062 34.671875 3.46875 C 34.242188 3.90625 33.941406 4.125 33.765625 4.125 C 33.078125 4.125 32.644531 3.304688 32.46875 1.671875 C 32.300781 0.046875 31.703125 -2.054688 30.671875 -4.640625 C 30.671875 -4.296875 30.628906 -3.992188 30.546875 -3.734375 C 30.460938 -3.472656 30.078125 -3.34375 29.390625 -3.34375 C 28.867188 -3.34375 28.523438 -3.515625 28.359375 -3.859375 L 28.609375 -4.890625 C 28.609375 -5.410156 28.4375 -5.925781 28.09375 -6.4375 C 27.75 -6.4375 27.578125 -4.976562 27.578125 -2.0625 C 27.578125 1.195312 27.75 3.039062 28.09375 3.46875 C 28.4375 3.90625 28.609375 4.378906 28.609375 4.890625 C 28.609375 5.578125 28.351562 5.921875 27.84375 5.921875 C 27.320312 5.921875 26.546875 5.40625 25.515625 4.375 C 25.171875 4.207031 25 3.78125 25 3.09375 C 25 2.570312 25.171875 1.625 25.515625 0.25 C 25.859375 -1.113281 26.03125 -2.054688 26.03125 -2.578125 C 26.03125 -2.921875 25.859375 -3.09375 25.515625 -3.09375 C 25.171875 -3.09375 24.910156 -3.390625 24.734375 -3.984375 C 24.566406 -4.585938 24.222656 -5.101562 23.703125 -5.53125 C 23.191406 -5.96875 22.675781 -6.613281 22.15625 -7.46875 C 21.644531 -8.332031 21.304688 -8.847656 21.140625 -9.015625 C 18.390625 -9.015625 16.84375 -9.617188 16.5 -10.828125 L 15.984375 -12.625 C 15.460938 -12.625 15.117188 -10.5625 14.953125 -6.4375 C 14.773438 -0.945312 14.515625 1.796875 14.171875 1.796875 C 13.828125 1.796875 13.484375 1.453125 13.140625 0.765625 C 11.253906 -3.691406 9.191406 -5.921875 6.953125 -5.921875 C 6.609375 -5.578125 6.4375 -4.628906 6.4375 -3.078125 C 6.4375 -1.535156 6.351562 -0.59375 6.1875 -0.25 L 6.1875 0.515625 C 6.007812 0.515625 5.878906 0.34375 5.796875 0 C 5.710938 -0.34375 5.410156 -0.515625 4.890625 -0.515625 C 4.378906 -0.515625 4.125 -4.46875 4.125 -12.375 C 4.125 -50.695312 4.8125 -69.859375 6.1875 -69.859375 C 6.875 -69.859375 7.21875 -52.5 7.21875 -17.78125 C 7.21875 -16.238281 7.5625 -15.46875 8.25 -15.46875 C 8.757812 -15.46875 9.015625 -15.894531 9.015625 -16.75 L 8.765625 -18.5625 L 8.765625 -65.734375 C 9.453125 -68.484375 9.835938 -71.921875 9.921875 -76.046875 C 10.003906 -80.171875 10.128906 -82.445312 10.296875 -82.875 C 10.472656 -83.300781 10.5625 -83.601562 10.5625 -83.78125 C 10.5625 -84.289062 10.429688 -84.929688 10.171875 -85.703125 C 9.921875 -86.472656 9.796875 -87.460938 9.796875 -88.671875 C 8.765625 -88.671875 8.078125 -89.359375 7.734375 -90.734375 C 7.390625 -86.097656 7.046875 -83.78125 6.703125 -83.78125 L 5.921875 -83.78125 C 5.234375 -83.78125 4.890625 -83.691406 4.890625 -83.515625 C 4.890625 -82.828125 5.40625 -81.625 6.4375 -79.90625 C 7.46875 -78.1875 7.984375 -76.898438 7.984375 -76.046875 C 7.984375 -75.179688 7.382812 -74.75 6.1875 -74.75 C 4.976562 -74.75 4.375 -79.390625 4.375 -88.671875 C 4.375 -94.171875 4.632812 -99.328125 5.15625 -104.140625 C 5.5 -108.085938 5.671875 -111.867188 5.671875 -115.484375 L 4.375 -135.84375 C 4.894531 -152.851562 5.5 -162.773438 6.1875 -165.609375 C 6.875 -168.453125 7.472656 -169.875 7.984375 -169.875 C 8.503906 -169.875 8.765625 -169.441406 8.765625 -168.578125 C 8.765625 -167.890625 8.503906 -166.988281 7.984375 -165.875 C 7.472656 -164.757812 7.21875 -161.019531 7.21875 -154.65625 C 7.21875 -150.875 7.5625 -148.984375 8.25 -148.984375 C 8.59375 -148.984375 8.765625 -149.671875 8.765625 -151.046875 L 8.5 -153.375 C 8.5 -155.4375 8.585938 -156.46875 8.765625 -156.46875 C 9.109375 -156.46875 9.707031 -156.296875 10.5625 -155.953125 C 9.707031 -157.835938 9.28125 -160.84375 9.28125 -164.96875 C 9.625 -169.269531 10.566406 -173.566406 12.109375 -177.859375 C 12.453125 -177.859375 13.3125 -178.546875 14.6875 -179.921875 C 16.0625 -181.296875 16.75 -182.671875 16.75 -184.046875 C 16.75 -185.421875 17.007812 -186.109375 17.53125 -186.109375 L 19.328125 -185.84375 C 19.503906 -185.84375 19.59375 -186.359375 19.59375 -187.390625 C 19.59375 -188.421875 19.675781 -189.109375 19.84375 -189.453125 C 20.363281 -189.285156 21.3125 -188.296875 22.6875 -186.484375 C 24.0625 -184.679688 24.789062 -182.921875 24.875 -181.203125 C 24.957031 -179.484375 25.257812 -178.453125 25.78125 -178.109375 C 25.945312 -178.453125 26.03125 -178.96875 26.03125 -179.65625 L 26.296875 -180.171875 C 26.640625 -179.828125 26.8125 -179.140625 26.8125 -178.109375 C 26.8125 -177.078125 27.15625 -176.257812 27.84375 -175.65625 C 28.53125 -175.0625 28.914062 -174.25 29 -173.21875 C 29.082031 -172.1875 29.554688 -171.671875 30.421875 -171.671875 C 31.453125 -171.671875 32.179688 -174.332031 32.609375 -179.65625 C 33.035156 -184.988281 33.679688 -187.65625 34.546875 -187.65625 C 35.234375 -187.65625 36.863281 -185.25 39.4375 -180.4375 C 40.125 -179.0625 40.722656 -177.941406 41.234375 -177.078125 C 41.753906 -176.222656 42.101562 -175.796875 42.28125 -175.796875 C 42.445312 -175.796875 42.53125 -176.3125 42.53125 -177.34375 C 42.363281 -178.882812 42.0625 -180 41.625 -180.6875 C 41.195312 -181.375 40.984375 -181.890625 40.984375 -182.234375 L 41.25 -183.015625 C 41.757812 -182.671875 42.144531 -182.195312 42.40625 -181.59375 C 42.664062 -180.988281 43.007812 -180.597656 43.4375 -180.421875 C 43.863281 -180.253906 44.503906 -179.3125 45.359375 -177.59375 C 46.222656 -175.875 46.65625 -173.898438 46.65625 -171.671875 C 46.65625 -169.265625 46.566406 -167.460938 46.390625 -166.265625 L 47.421875 -133.78125 C 47.421875 -133.09375 47.25 -132.75 46.90625 -132.75 L 46.90625 -119.09375 C 47.25 -119.257812 47.59375 -119.34375 47.9375 -119.34375 C 48.28125 -119.34375 49.179688 -119.6875 50.640625 -120.375 C 52.109375 -121.0625 54.390625 -121.40625 57.484375 -121.40625 C 60.578125 -121.40625 62.46875 -121.273438 63.15625 -121.015625 C 63.84375 -120.765625 64.359375 -120.640625 64.703125 -120.640625 C 64.867188 -120.640625 65.035156 -120.679688 65.203125 -120.765625 C 65.378906 -120.847656 65.726562 -120.890625 66.25 -120.890625 C 66.757812 -120.890625 67.570312 -120.675781 68.6875 -120.25 C 69.8125 -119.820312 71.0625 -119.5625 72.4375 -119.46875 C 73.8125 -119.382812 74.96875 -119.039062 75.90625 -118.4375 C 76.851562 -117.84375 77.628906 -117.457031 78.234375 -117.28125 C 78.835938 -117.113281 79.609375 -116.6875 80.546875 -116 C 81.492188 -115.3125 82.269531 -114.921875 82.875 -114.828125 C 83.476562 -114.742188 84.632812 -114.101562 86.34375 -112.90625 C 88.0625 -112.039062 91.023438 -109.546875 95.234375 -105.421875 C 99.453125 -101.296875 103.492188 -97.382812 107.359375 -93.6875 C 111.222656 -90 113.882812 -86.953125 115.34375 -84.546875 C 116.8125 -82.140625 117.757812 -80.894531 118.1875 -80.8125 C 118.613281 -80.726562 118.828125 -80.425781 118.828125 -79.90625 C 118.828125 -79.394531 119.128906 -78.796875 119.734375 -78.109375 C 120.335938 -77.421875 120.640625 -76.644531 120.640625 -75.78125 C 120.640625 -74.925781 120.984375 -74.15625 121.671875 -73.46875 C 122.359375 -72.78125 122.703125 -72.175781 122.703125 -71.65625 L 122.4375 -70.375 C 122.4375 -69.851562 122.609375 -69.460938 122.953125 -69.203125 C 123.296875 -68.953125 123.640625 -68.523438 123.984375 -67.921875 C 124.328125 -67.316406 124.5 -66.929688 124.5 -66.765625 C 124.5 -66.242188 124.285156 -65.984375 123.859375 -65.984375 C 123.429688 -65.984375 123.21875 -65.898438 123.21875 -65.734375 C 123.21875 -65.554688 123.390625 -65.207031 123.734375 -64.6875 C 124.078125 -64.175781 124.25 -63.578125 124.25 -62.890625 L 123.984375 -61.859375 C 123.984375 -60.484375 124.195312 -59.453125 124.625 -58.765625 C 125.0625 -58.078125 125.28125 -57.5625 125.28125 -57.21875 C 125.28125 -56.875 125.148438 -56.660156 124.890625 -56.578125 C 124.628906 -56.492188 124.5 -56.109375 124.5 -55.421875 C 124.84375 -54.046875 125.015625 -52.753906 125.015625 -51.546875 L 123.46875 -41.25 C 123.46875 -40.90625 123.082031 -40.6875 122.3125 -40.59375 C 121.539062 -40.507812 121.15625 -39.867188 121.15625 -38.671875 C 121.5 -38.671875 121.84375 -38.5 122.1875 -38.15625 C 122.875 -37.289062 123.21875 -36.515625 123.21875 -35.828125 C 123.21875 -35.484375 123.046875 -35.179688 122.703125 -34.921875 C 122.359375 -34.671875 122.1875 -34.328125 122.1875 -33.890625 C 122.1875 -33.460938 121.710938 -32.601562 120.765625 -31.3125 C 119.816406 -30.03125 119.253906 -29.046875 119.078125 -28.359375 C 118.910156 -27.671875 118.613281 -27.238281 118.1875 -27.0625 C 117.757812 -26.894531 117.546875 -26.507812 117.546875 -25.90625 C 117.546875 -25.300781 117.113281 -24.523438 116.25 -23.578125 C 115.394531 -22.640625 114.796875 -21.828125 114.453125 -21.140625 C 114.109375 -20.453125 113.289062 -19.675781 112 -18.8125 C 110.707031 -17.957031 109.890625 -17.054688 109.546875 -16.109375 C 109.203125 -15.160156 107.179688 -13.484375 103.484375 -11.078125 C 99.796875 -8.671875 97.820312 -7.296875 97.5625 -6.953125 C 97.300781 -6.609375 96.3125 -6.09375 94.59375 -5.40625 C 92.875 -4.71875 91.882812 -4.242188 91.625 -3.984375 C 91.375 -3.734375 90.816406 -3.609375 89.953125 -3.609375 C 89.097656 -3.609375 88.453125 -3.304688 88.015625 -2.703125 C 87.585938 -2.097656 86.644531 -1.707031 85.1875 -1.53125 C 83.726562 -1.363281 82.050781 -0.9375 80.15625 -0.25 C 78.269531 0.425781 76.382812 0.765625 74.5 0.765625 Z M 68.5625 -34.28125 C 68.738281 -34.28125 69 -34.453125 69.34375 -34.796875 C 69.6875 -35.140625 70.375 -35.351562 71.40625 -35.4375 C 72.4375 -35.53125 73.550781 -36.09375 74.75 -37.125 C 75.957031 -38.15625 76.90625 -39.398438 77.59375 -40.859375 C 78.28125 -42.316406 79.179688 -45.234375 80.296875 -49.609375 C 81.410156 -53.992188 81.96875 -56.789062 81.96875 -58 C 81.96875 -59.375 81.753906 -60.1875 81.328125 -60.4375 C 80.898438 -60.695312 80.6875 -61.644531 80.6875 -63.28125 C 80.6875 -64.914062 80.46875 -66.03125 80.03125 -66.625 C 79.601562 -67.226562 79.390625 -67.789062 79.390625 -68.3125 C 78.703125 -72.945312 76.726562 -76.125 73.46875 -77.84375 C 73.125 -78.019531 72.609375 -78.148438 71.921875 -78.234375 C 71.234375 -78.316406 70.84375 -78.570312 70.75 -79 C 70.664062 -79.4375 70.023438 -79.65625 68.828125 -79.65625 C 66.765625 -79.820312 60.578125 -81.023438 50.265625 -83.265625 L 50 -37.125 C 52.0625 -35.570312 56.015625 -34.796875 61.859375 -34.796875 C 65.472656 -34.796875 67.40625 -34.707031 67.65625 -34.53125 C 67.914062 -34.363281 68.21875 -34.28125 68.5625 -34.28125 Z M 68.5625 -34.28125 "/></g></g></g><g fill="#00bf63" fill-opacity="1"><g transform="translate(186.465383, 197.268022)"><g><path d="M 96.65625 -8.25 C 96.832031 -8.59375 97.046875 -8.976562 97.296875 -9.40625 C 97.554688 -9.832031 97.859375 -10.046875 98.203125 -10.046875 L 100.53125 -9.53125 C 100.53125 -11.25 98.8125 -13.65625 95.375 -16.75 C 96.40625 -14.519531 96.921875 -12.71875 96.921875 -11.34375 Z M 115.21875 -4.640625 C 115.738281 -4.640625 116.515625 -5.753906 117.546875 -7.984375 C 118.578125 -10.222656 119.09375 -11.769531 119.09375 -12.625 C 119.09375 -12.96875 118.921875 -13.140625 118.578125 -13.140625 C 118.234375 -13.140625 117.800781 -12.535156 117.28125 -11.328125 C 116.769531 -10.128906 116.34375 -9.53125 116 -9.53125 L 116 -12.109375 L 115.484375 -12.375 C 114.796875 -10.820312 114.453125 -9.359375 114.453125 -7.984375 C 114.453125 -5.753906 114.707031 -4.640625 115.21875 -4.640625 Z M 120.375 -14.4375 C 121.238281 -14.4375 121.84375 -15.035156 122.1875 -16.234375 C 121.84375 -16.578125 121.5 -16.75 121.15625 -16.75 C 120.289062 -16.75 119.773438 -16.234375 119.609375 -15.203125 C 119.773438 -14.691406 120.03125 -14.4375 120.375 -14.4375 Z M 117.546875 -84.8125 L 117.546875 -85.828125 C 117.546875 -87.035156 117.457031 -87.640625 117.28125 -87.640625 Z M 115.21875 -87.375 C 115.5625 -87.375 115.90625 -88.148438 116.25 -89.703125 L 115.734375 -89.953125 C 115.046875 -89.953125 114.703125 -89.265625 114.703125 -87.890625 Z M 115.734375 -92.015625 C 117.109375 -94.078125 117.796875 -95.710938 117.796875 -96.921875 L 117.546875 -97.171875 L 115.484375 -92.28125 Z M 120.640625 -88.15625 L 120.890625 -110.84375 C 120.890625 -109.976562 120.757812 -109.242188 120.5 -108.640625 C 120.25 -108.046875 120.125 -107.488281 120.125 -106.96875 L 120.640625 -104.90625 C 120.640625 -104.90625 120.507812 -104.644531 120.25 -104.125 C 119.988281 -103.613281 119.859375 -101.898438 119.859375 -98.984375 C 121.410156 -100.179688 122.1875 -101.898438 122.1875 -104.140625 C 122.1875 -104.484375 122.097656 -104.910156 121.921875 -105.421875 C 121.753906 -105.941406 121.671875 -107.234375 121.671875 -109.296875 L 121.671875 -102.84375 C 121.671875 -93.050781 121.328125 -88.15625 120.640625 -88.15625 Z M 121.921875 -89.1875 L 121.671875 -89.4375 C 120.640625 -89.4375 120.125 -96.484375 120.125 -110.578125 L 120.640625 -93.5625 C 120.640625 -93.21875 120.507812 -93.003906 120.25 -92.921875 C 119.988281 -92.835938 119.773438 -92.363281 119.609375 -91.5 C 119.773438 -90.644531 120.117188 -90.21875 120.640625 -90.21875 C 120.984375 -90.5625 121.238281 -90.734375 121.40625 -90.734375 C 121.75 -90.734375 121.921875 -90.21875 121.921875 -89.1875 Z M 120.890625 -99.234375 C 121.578125 -99.753906 121.921875 -101.300781 121.921875 -103.875 C 121.921875 -104.5625 121.835938 -104.90625 121.671875 -104.90625 C 120.460938 -104.21875 119.773438 -102.929688 119.609375 -101.046875 C 119.773438 -100.015625 120.203125 -99.410156 120.890625 -99.234375 Z M 94.078125 -104.390625 C 94.597656 -105.253906 94.859375 -106.285156 94.859375 -107.484375 C 94.859375 -107.828125 94.769531 -108.085938 94.59375 -108.265625 C 94.082031 -107.921875 93.828125 -107.234375 93.828125 -106.203125 C 93.828125 -105.335938 93.910156 -104.734375 94.078125 -104.390625 Z M 120.375 -113.9375 C 121.75 -114.28125 122.4375 -116.6875 122.4375 -121.15625 C 122.4375 -123.90625 121.960938 -125.28125 121.015625 -125.28125 C 120.078125 -125.28125 119.609375 -125.625 119.609375 -126.3125 C 119.609375 -126.820312 119.863281 -127.421875 120.375 -128.109375 C 121.238281 -129.648438 121.671875 -130.679688 121.671875 -131.203125 C 119.773438 -131.203125 118.828125 -129.613281 118.828125 -126.4375 C 118.828125 -123.257812 118.828125 -120.035156 118.828125 -116.765625 C 118.828125 -114.878906 119.34375 -113.9375 120.375 -113.9375 Z M 85.828125 -120.890625 C 86.347656 -120.890625 86.609375 -121.664062 86.609375 -123.21875 C 86.609375 -123.5625 86.476562 -123.945312 86.21875 -124.375 C 85.957031 -124.800781 85.828125 -125.53125 85.828125 -126.5625 C 85.828125 -127.59375 85.742188 -128.109375 85.578125 -128.109375 C 85.234375 -127.597656 85.0625 -126.738281 85.0625 -125.53125 C 85.0625 -122.4375 85.316406 -120.890625 85.828125 -120.890625 Z M 116.515625 -121.671875 C 117.367188 -122.015625 117.796875 -123.5625 117.796875 -126.3125 C 116.421875 -124.25 115.734375 -122.875 115.734375 -122.1875 C 115.734375 -121.84375 115.992188 -121.671875 116.515625 -121.671875 Z M 119.34375 -131.71875 C 119.6875 -131.71875 120.242188 -132.53125 121.015625 -134.15625 C 121.796875 -135.789062 122.1875 -137.296875 122.1875 -138.671875 C 122.1875 -140.734375 121.582031 -141.765625 120.375 -141.765625 C 119.175781 -141.253906 118.578125 -139.28125 118.578125 -135.84375 C 118.578125 -133.09375 118.832031 -131.71875 119.34375 -131.71875 Z M 116 -135.328125 C 117.03125 -135.328125 117.546875 -136.015625 117.546875 -137.390625 C 117.546875 -139.109375 116.769531 -140.140625 115.21875 -140.484375 C 114.53125 -140.484375 114.1875 -140.394531 114.1875 -140.21875 L 114.1875 -139.96875 C 115.050781 -138.59375 115.484375 -137.472656 115.484375 -136.609375 L 115.484375 -136.09375 C 115.484375 -135.582031 115.65625 -135.328125 116 -135.328125 Z M 85.578125 -137.640625 C 85.921875 -138.328125 86.09375 -139.359375 86.09375 -140.734375 C 86.09375 -142.109375 85.921875 -142.96875 85.578125 -143.3125 C 85.066406 -142.800781 84.8125 -141.6875 84.8125 -139.96875 C 84.8125 -138.414062 85.066406 -137.640625 85.578125 -137.640625 Z M 120.890625 -143.828125 L 120.890625 -144.609375 L 121.921875 -150.53125 L 121.921875 -152.078125 C 121.921875 -153.109375 121.75 -153.625 121.40625 -153.625 C 120.894531 -153.625 120.378906 -152.59375 119.859375 -150.53125 C 119.515625 -149.5 119.34375 -148.554688 119.34375 -147.703125 C 119.34375 -146.671875 119.859375 -145.378906 120.890625 -143.828125 Z M 94.34375 -178.625 C 94.507812 -178.96875 94.59375 -179.484375 94.59375 -180.171875 C 94.59375 -181.722656 94.421875 -182.5 94.078125 -182.5 L 93.828125 -180.4375 Z M 86.609375 -179.140625 C 87.296875 -181.378906 87.640625 -183.269531 87.640625 -184.8125 C 87.640625 -185.675781 87.378906 -186.109375 86.859375 -186.109375 C 86.347656 -186.109375 86.09375 -185.078125 86.09375 -183.015625 Z M 119.609375 -154.921875 C 120.296875 -155.773438 120.8125 -156.203125 121.15625 -156.203125 L 121.671875 -155.4375 L 122.1875 -156.203125 C 122.1875 -157.410156 121.925781 -158.015625 121.40625 -158.015625 C 121.0625 -158.015625 120.375 -157.066406 119.34375 -155.171875 Z M 100.265625 -181.984375 L 100.265625 -183.265625 C 100.265625 -184.472656 100.179688 -185.078125 100.015625 -185.078125 L 99.75 -183.78125 C 99.925781 -182.582031 100.097656 -181.984375 100.265625 -181.984375 Z M 94.859375 -187.65625 L 94.859375 -188.421875 C 94.859375 -190.140625 94.425781 -191 93.5625 -191 C 93.394531 -191 93.222656 -190.570312 93.046875 -189.71875 C 93.046875 -188.34375 93.390625 -187.65625 94.078125 -187.65625 Z M 91.25 -191.265625 C 91.59375 -191.265625 92.191406 -191.648438 93.046875 -192.421875 C 93.910156 -193.191406 94.425781 -194.007812 94.59375 -194.875 L 94.078125 -194.875 C 93.910156 -194.875 93.4375 -194.398438 92.65625 -193.453125 C 91.882812 -192.503906 91.414062 -191.773438 91.25 -191.265625 Z M 98.203125 -200.03125 C 99.066406 -201.0625 99.5 -202.003906 99.5 -202.859375 L 99.234375 -203.375 C 99.066406 -203.375 98.722656 -202.257812 98.203125 -200.03125 Z M 100.015625 -182.234375 C 99.328125 -182.234375 98.984375 -190.140625 98.984375 -205.953125 C 98.984375 -205.441406 99.15625 -205.097656 99.5 -204.921875 C 100.007812 -205.265625 100.265625 -205.695312 100.265625 -206.21875 Z M 50.265625 -2.0625 C 50.609375 -2.570312 50.78125 -2.914062 50.78125 -3.09375 L 50.265625 -3.34375 C 49.921875 -3.34375 49.578125 -3 49.234375 -2.3125 Z M 45.875 -9.28125 C 46.394531 -9.28125 46.65625 -9.453125 46.65625 -9.796875 C 46.65625 -10.648438 45.878906 -11.078125 44.328125 -11.078125 L 44.078125 -11.078125 C 44.585938 -9.878906 45.1875 -9.28125 45.875 -9.28125 Z M 25.78125 -19.84375 C 26.125 -19.84375 26.46875 -20.617188 26.8125 -22.171875 C 25.945312 -21.648438 25.429688 -21.046875 25.265625 -20.359375 C 25.429688 -20.015625 25.601562 -19.84375 25.78125 -19.84375 Z M 51.8125 -21.90625 C 52.15625 -22.082031 52.328125 -22.253906 52.328125 -22.421875 L 52.0625 -22.9375 C 51.375 -22.59375 51.03125 -22.335938 51.03125 -22.171875 C 51.03125 -21.992188 51.289062 -21.90625 51.8125 -21.90625 Z M 46.65625 -25 L 47.421875 -25.265625 C 46.910156 -25.609375 46.484375 -25.78125 46.140625 -25.78125 L 45.625 -25.515625 C 45.96875 -25.171875 46.3125 -25 46.65625 -25 Z M 44.59375 -26.03125 C 44.9375 -26.375 45.109375 -26.632812 45.109375 -26.8125 C 45.109375 -26.976562 44.847656 -27.0625 44.328125 -27.0625 C 43.816406 -27.0625 43.5625 -26.976562 43.5625 -26.8125 C 44.070312 -26.289062 44.414062 -26.03125 44.59375 -26.03125 Z M 19.078125 -33.765625 L 19.078125 -34.28125 L 18.296875 -35.828125 C 18.296875 -35.140625 18.554688 -34.453125 19.078125 -33.765625 Z M 9.28125 -39.4375 C 10.3125 -39.4375 10.910156 -39.867188 11.078125 -40.734375 C 10.910156 -41.242188 10.566406 -41.585938 10.046875 -41.765625 C 9.703125 -41.765625 9.445312 -41.765625 9.28125 -41.765625 Z M 7.46875 -46.140625 C 7.8125 -46.648438 7.984375 -47.078125 7.984375 -47.421875 L 7.46875 -47.421875 L 6.953125 -46.65625 Z M 36.859375 -55.9375 C 37.546875 -55.9375 37.890625 -56.707031 37.890625 -58.25 C 37.890625 -59.28125 37.546875 -59.796875 36.859375 -59.796875 C 36.347656 -59.796875 36.09375 -59.28125 36.09375 -58.25 C 36.09375 -58.082031 36.132812 -57.828125 36.21875 -57.484375 C 36.300781 -57.140625 36.382812 -56.796875 36.46875 -56.453125 C 36.5625 -56.109375 36.691406 -55.9375 36.859375 -55.9375 Z M 7.984375 -56.1875 C 8.503906 -56.53125 8.765625 -56.960938 8.765625 -57.484375 C 8.765625 -58.171875 8.675781 -58.515625 8.5 -58.515625 C 7.8125 -57.484375 7.46875 -56.796875 7.46875 -56.453125 C 7.46875 -56.273438 7.640625 -56.1875 7.984375 -56.1875 Z M 36.09375 -61.34375 C 36.4375 -61.519531 36.691406 -62.378906 36.859375 -63.921875 C 37.203125 -64.785156 37.375 -65.5625 37.375 -66.25 L 37.125 -68.3125 C 37.125 -69.164062 37.378906 -70.28125 37.890625 -71.65625 L 37.640625 -73.71875 C 37.640625 -74.40625 37.9375 -75.476562 38.53125 -76.9375 C 39.132812 -78.40625 39.4375 -79.3125 39.4375 -79.65625 C 39.4375 -80 39.351562 -80.171875 39.1875 -80.171875 C 37.632812 -79.648438 36.859375 -78.789062 36.859375 -77.59375 L 37.125 -76.046875 C 37.125 -75.359375 36.953125 -74.625 36.609375 -73.84375 C 36.265625 -73.070312 36.09375 -72.171875 36.09375 -71.140625 L 36.09375 -69.859375 C 36.09375 -68.140625 35.832031 -66.503906 35.3125 -64.953125 L 35.0625 -63.15625 C 35.0625 -62.289062 35.40625 -61.6875 36.09375 -61.34375 Z M 9.015625 -70.109375 C 9.703125 -70.109375 10.046875 -70.539062 10.046875 -71.40625 C 9.703125 -71.40625 9.269531 -71.316406 8.75 -71.140625 C 8.238281 -70.972656 7.984375 -70.800781 7.984375 -70.625 C 7.984375 -70.28125 8.328125 -70.109375 9.015625 -70.109375 Z M 9.796875 -72.171875 C 10.304688 -72.347656 10.5625 -72.519531 10.5625 -72.6875 L 10.046875 -73.46875 C 9.359375 -72.945312 9.015625 -72.601562 9.015625 -72.4375 C 9.015625 -72.257812 9.273438 -72.171875 9.796875 -72.171875 Z M 39.4375 -80.421875 L 39.953125 -81.71875 C 39.953125 -82.226562 39.867188 -82.484375 39.703125 -82.484375 C 39.359375 -81.972656 39.1875 -81.457031 39.1875 -80.9375 C 39.1875 -80.59375 39.269531 -80.421875 39.4375 -80.421875 Z M 15.203125 -86.609375 C 15.722656 -86.953125 15.984375 -87.296875 15.984375 -87.640625 C 15.984375 -87.984375 15.894531 -88.15625 15.71875 -88.15625 C 15.375 -88.15625 15.203125 -87.640625 15.203125 -86.609375 Z M 61.09375 -100.78125 C 61.945312 -101.125 62.375 -101.46875 62.375 -101.8125 C 61.34375 -101.8125 60.828125 -101.554688 60.828125 -101.046875 Z M 65.46875 -102.078125 C 66.332031 -102.242188 66.765625 -102.5 66.765625 -102.84375 Z M 79.390625 -104.140625 C 79.734375 -104.140625 79.992188 -104.222656 80.171875 -104.390625 C 79.828125 -105.765625 79.050781 -106.453125 77.84375 -106.453125 L 77.59375 -105.9375 C 77.59375 -105.59375 77.847656 -105.207031 78.359375 -104.78125 C 78.878906 -104.351562 79.222656 -104.140625 79.390625 -104.140625 Z M 97.4375 -108.265625 C 98.976562 -108.265625 99.835938 -108.691406 100.015625 -109.546875 C 100.015625 -109.722656 99.84375 -110.15625 99.5 -110.84375 C 99.15625 -111.53125 98.894531 -111.785156 98.71875 -111.609375 C 98.375 -110.234375 98.03125 -109.457031 97.6875 -109.28125 C 97.34375 -109.113281 97.171875 -108.859375 97.171875 -108.515625 C 97.171875 -108.347656 97.257812 -108.265625 97.4375 -108.265625 Z M 71.921875 -120.640625 C 73.296875 -121.148438 73.984375 -121.578125 73.984375 -121.921875 L 73.203125 -121.921875 C 72.171875 -121.921875 71.65625 -121.664062 71.65625 -121.15625 Z M 65.734375 -1.796875 L 65.46875 -2.0625 C 65.46875 -2.226562 65.941406 -2.613281 66.890625 -3.21875 C 67.835938 -3.820312 68.828125 -4.207031 69.859375 -4.375 L 70.109375 -4.125 C 70.109375 -3.945312 69.460938 -3.515625 68.171875 -2.828125 C 66.890625 -2.140625 66.078125 -1.796875 65.734375 -1.796875 Z M 59.03125 -3.609375 L 58 -3.859375 C 58.34375 -4.203125 58.941406 -4.375 59.796875 -4.375 C 60.316406 -4.375 60.578125 -4.289062 60.578125 -4.125 C 60.234375 -3.78125 59.71875 -3.609375 59.03125 -3.609375 Z M 124.765625 -99.234375 C 124.585938 -101.472656 124.5 -102.59375 124.5 -102.59375 C 123.988281 -102.59375 123.734375 -101.988281 123.734375 -100.78125 C 123.734375 -100.269531 124.078125 -99.753906 124.765625 -99.234375 Z M 55.15625 0.765625 C 53.09375 0.765625 51.113281 0.425781 49.21875 -0.25 C 47.332031 -0.9375 45.703125 -1.410156 44.328125 -1.671875 C 42.960938 -1.929688 42.019531 -2.359375 41.5 -2.953125 C 40.988281 -3.554688 40.300781 -3.859375 39.4375 -3.859375 C 38.582031 -3.859375 38.023438 -3.988281 37.765625 -4.25 C 37.503906 -4.507812 36.554688 -5.023438 34.921875 -5.796875 C 33.296875 -6.566406 32.351562 -7.164062 32.09375 -7.59375 C 31.832031 -8.03125 29.851562 -9.492188 26.15625 -11.984375 C 22.46875 -14.472656 20.40625 -16.234375 19.96875 -17.265625 C 19.539062 -18.296875 18.679688 -19.285156 17.390625 -20.234375 C 16.109375 -21.179688 15.296875 -22 14.953125 -22.6875 C 14.609375 -23.375 14.046875 -24.234375 13.265625 -25.265625 C 12.492188 -26.296875 12.109375 -27.15625 12.109375 -27.84375 C 12.109375 -28.53125 11.894531 -28.957031 11.46875 -29.125 C 11.039062 -29.300781 10.738281 -29.773438 10.5625 -30.546875 C 10.394531 -31.316406 9.796875 -32.390625 8.765625 -33.765625 C 7.734375 -35.140625 7.21875 -36.039062 7.21875 -36.46875 C 7.21875 -36.90625 7.046875 -37.25 6.703125 -37.5 C 6.359375 -37.757812 6.1875 -38.0625 6.1875 -38.40625 C 6.1875 -39.09375 6.53125 -39.953125 7.21875 -40.984375 C 7.5625 -41.328125 7.90625 -41.5 8.25 -41.5 C 8.25 -42.695312 7.859375 -43.335938 7.078125 -43.421875 C 6.304688 -43.515625 5.921875 -43.734375 5.921875 -44.078125 L 4.375 -55.421875 C 4.375 -56.796875 4.546875 -58.171875 4.890625 -59.546875 C 4.890625 -60.234375 4.757812 -60.617188 4.5 -60.703125 C 4.25 -60.785156 4.125 -61 4.125 -61.34375 C 4.125 -61.6875 4.335938 -62.242188 4.765625 -63.015625 C 5.191406 -63.796875 5.40625 -64.875 5.40625 -66.25 L 5.40625 -67.53125 C 5.40625 -68.21875 5.535156 -68.816406 5.796875 -69.328125 C 6.054688 -69.847656 6.1875 -70.28125 6.1875 -70.625 C 6.1875 -70.800781 5.96875 -70.890625 5.53125 -70.890625 C 5.101562 -70.890625 4.890625 -71.144531 4.890625 -71.65625 C 4.890625 -71.832031 5.0625 -72.265625 5.40625 -72.953125 C 5.75 -73.640625 6.09375 -74.109375 6.4375 -74.359375 C 6.78125 -74.617188 6.953125 -75.007812 6.953125 -75.53125 L 6.703125 -76.8125 C 6.703125 -77.5 7.046875 -78.1875 7.734375 -78.875 C 8.421875 -79.5625 8.765625 -80.332031 8.765625 -81.1875 C 8.765625 -82.050781 9.109375 -82.867188 9.796875 -83.640625 C 10.484375 -84.421875 10.828125 -85.066406 10.828125 -85.578125 C 10.828125 -86.085938 11.039062 -86.382812 11.46875 -86.46875 C 11.894531 -86.5625 12.796875 -87.9375 14.171875 -90.59375 C 15.546875 -93.257812 18.164062 -96.523438 22.03125 -100.390625 C 25.90625 -104.265625 29.945312 -108.476562 34.15625 -113.03125 C 38.363281 -117.582031 41.410156 -120.289062 43.296875 -121.15625 C 44.847656 -122.53125 45.921875 -123.257812 46.515625 -123.34375 C 47.117188 -123.425781 47.894531 -123.8125 48.84375 -124.5 C 49.789062 -125.1875 50.5625 -125.613281 51.15625 -125.78125 C 51.757812 -125.957031 52.578125 -126.347656 53.609375 -126.953125 C 54.640625 -127.554688 55.800781 -127.898438 57.09375 -127.984375 C 58.382812 -128.066406 59.585938 -128.363281 60.703125 -128.875 C 61.816406 -129.394531 62.71875 -129.65625 63.40625 -129.65625 C 63.925781 -129.65625 64.269531 -129.566406 64.4375 -129.390625 C 64.613281 -129.222656 64.785156 -129.140625 64.953125 -129.140625 C 65.296875 -129.140625 65.769531 -129.3125 66.375 -129.65625 C 66.976562 -130 68.828125 -130.171875 71.921875 -130.171875 C 75.179688 -130.171875 77.5 -129.785156 78.875 -129.015625 C 80.25 -128.242188 81.109375 -127.859375 81.453125 -127.859375 C 81.796875 -127.859375 82.140625 -127.769531 82.484375 -127.59375 L 82.484375 -142.28125 C 82.140625 -142.457031 81.96875 -142.890625 81.96875 -143.578125 L 83 -178.109375 C 82.832031 -179.484375 82.75 -181.460938 82.75 -184.046875 C 82.75 -186.453125 83.21875 -188.597656 84.15625 -190.484375 C 85.101562 -192.378906 85.789062 -193.410156 86.21875 -193.578125 C 86.644531 -193.753906 86.988281 -194.140625 87.25 -194.734375 C 87.507812 -195.335938 87.8125 -195.8125 88.15625 -196.15625 L 88.40625 -195.390625 C 88.40625 -195.046875 88.234375 -194.53125 87.890625 -193.84375 C 87.546875 -193.15625 87.289062 -191.953125 87.125 -190.234375 C 87.125 -189.203125 87.207031 -188.6875 87.375 -188.6875 C 87.550781 -188.6875 87.851562 -189.113281 88.28125 -189.96875 C 88.707031 -190.832031 89.265625 -192.035156 89.953125 -193.578125 C 92.535156 -198.566406 94.171875 -201.0625 94.859375 -201.0625 C 95.890625 -201.0625 96.617188 -198.222656 97.046875 -192.546875 C 97.472656 -186.878906 98.117188 -184.046875 98.984375 -184.046875 C 99.835938 -184.046875 100.304688 -184.601562 100.390625 -185.71875 C 100.484375 -186.832031 100.875 -187.734375 101.5625 -188.421875 C 102.25 -189.109375 102.59375 -190.007812 102.59375 -191.125 C 102.59375 -192.25 102.765625 -192.984375 103.109375 -193.328125 L 103.359375 -192.8125 C 103.359375 -191.945312 103.445312 -191.34375 103.625 -191 C 104.132812 -191.519531 104.429688 -192.640625 104.515625 -194.359375 C 104.609375 -196.078125 105.382812 -197.921875 106.84375 -199.890625 C 108.300781 -201.867188 109.203125 -202.945312 109.546875 -203.125 C 109.722656 -202.78125 109.8125 -202.046875 109.8125 -200.921875 C 109.8125 -199.804688 109.894531 -199.25 110.0625 -199.25 L 111.875 -199.515625 C 112.382812 -199.515625 112.640625 -198.78125 112.640625 -197.3125 C 112.640625 -195.851562 113.367188 -194.394531 114.828125 -192.9375 C 116.296875 -191.476562 117.203125 -190.75 117.546875 -190.75 C 119.085938 -186.101562 119.945312 -181.460938 120.125 -176.828125 C 120.125 -172.535156 119.78125 -169.359375 119.09375 -167.296875 C 119.78125 -167.640625 120.296875 -167.8125 120.640625 -167.8125 C 120.804688 -167.8125 120.890625 -166.691406 120.890625 -164.453125 L 120.890625 -161.875 C 120.890625 -160.5 120.976562 -159.8125 121.15625 -159.8125 C 121.84375 -159.8125 122.1875 -161.875 122.1875 -166 C 122.1875 -172.695312 121.925781 -176.644531 121.40625 -177.84375 C 120.894531 -179.050781 120.640625 -180 120.640625 -180.6875 C 120.640625 -181.71875 120.894531 -182.234375 121.40625 -182.234375 C 121.925781 -182.234375 122.53125 -180.6875 123.21875 -177.59375 C 123.90625 -174.5 124.503906 -163.929688 125.015625 -145.890625 L 123.734375 -123.984375 C 123.734375 -120.035156 123.90625 -115.910156 124.25 -111.609375 C 124.757812 -106.628906 125.015625 -101.128906 125.015625 -95.109375 C 125.015625 -85.316406 124.414062 -80.421875 123.21875 -80.421875 C 122.007812 -80.421875 121.40625 -80.851562 121.40625 -81.71875 C 121.40625 -82.40625 121.921875 -83.691406 122.953125 -85.578125 C 123.984375 -87.460938 124.5 -88.75 124.5 -89.4375 C 124.5 -89.78125 124.15625 -89.953125 123.46875 -89.953125 L 122.703125 -89.703125 C 122.359375 -89.703125 122.015625 -92.28125 121.671875 -97.4375 C 121.328125 -95.882812 120.722656 -95.109375 119.859375 -95.109375 C 119.859375 -93.734375 119.726562 -92.660156 119.46875 -91.890625 C 119.21875 -91.117188 119.09375 -90.472656 119.09375 -89.953125 C 119.09375 -89.609375 119.175781 -89.222656 119.34375 -88.796875 C 119.519531 -88.367188 119.648438 -85.960938 119.734375 -81.578125 C 119.816406 -77.203125 120.117188 -73.550781 120.640625 -70.625 L 120.640625 -31.1875 L 120.375 -21.390625 C 120.375 -20.359375 120.632812 -19.84375 121.15625 -19.84375 C 121.84375 -19.84375 122.1875 -23.28125 122.1875 -30.15625 C 122.1875 -60.0625 122.53125 -75.015625 123.21875 -75.015625 C 124.59375 -75.015625 125.28125 -55.507812 125.28125 -16.5 C 125.28125 -8.25 125.019531 -4.125 124.5 -4.125 C 123.988281 -4.125 123.6875 -3.90625 123.59375 -3.46875 C 123.507812 -3.039062 123.382812 -2.828125 123.21875 -2.828125 L 123.21875 -3.609375 C 123.039062 -4.117188 122.953125 -5.144531 122.953125 -6.6875 C 122.953125 -8.238281 122.78125 -9.1875 122.4375 -9.53125 C 120.375 -9.53125 118.3125 -7.210938 116.25 -2.578125 C 115.90625 -1.890625 115.5625 -1.546875 115.21875 -1.546875 C 114.875 -1.546875 114.617188 -4.46875 114.453125 -10.3125 C 114.273438 -14.78125 113.929688 -17.015625 113.421875 -17.015625 L 112.90625 -14.953125 C 112.5625 -13.578125 111.097656 -12.890625 108.515625 -12.890625 C 108.347656 -12.710938 108.003906 -12.148438 107.484375 -11.203125 C 106.972656 -10.265625 106.414062 -9.578125 105.8125 -9.140625 C 105.207031 -8.710938 104.816406 -8.195312 104.640625 -7.59375 C 104.472656 -7 104.21875 -6.703125 103.875 -6.703125 C 103.53125 -6.703125 103.359375 -6.53125 103.359375 -6.1875 C 103.359375 -5.664062 103.53125 -4.675781 103.875 -3.21875 C 104.21875 -1.757812 104.390625 -0.6875 104.390625 0 C 104.390625 0.6875 104.21875 1.113281 103.875 1.28125 C 102.84375 2.3125 102.070312 2.828125 101.5625 2.828125 C 101.039062 2.828125 100.78125 2.484375 100.78125 1.796875 C 100.78125 1.285156 100.953125 0.769531 101.296875 0.25 C 101.640625 -0.257812 101.8125 -2.234375 101.8125 -5.671875 C 101.8125 -8.765625 101.640625 -10.3125 101.296875 -10.3125 C 100.953125 -9.625 100.78125 -9.019531 100.78125 -8.5 L 101.046875 -7.46875 C 100.867188 -7.125 100.523438 -6.953125 100.015625 -6.953125 C 99.328125 -6.953125 98.9375 -7.082031 98.84375 -7.34375 C 98.757812 -7.601562 98.71875 -7.90625 98.71875 -8.25 C 97.863281 -5.664062 97.347656 -3.472656 97.171875 -1.671875 C 97.003906 0.128906 96.578125 1.03125 95.890625 1.03125 C 95.710938 1.03125 95.363281 0.816406 94.84375 0.390625 C 94.332031 -0.0351562 93.863281 -0.976562 93.4375 -2.4375 C 93.007812 -3.90625 92.453125 -4.640625 91.765625 -4.640625 C 89.703125 -9.796875 88.328125 -13.578125 87.640625 -15.984375 C 80.253906 -8.585938 75.441406 -4.890625 73.203125 -4.890625 C 72.691406 -4.890625 72.4375 -5.148438 72.4375 -5.671875 C 72.4375 -6.015625 73.125 -6.1875 74.5 -6.1875 C 75.007812 -6.351562 75.265625 -6.953125 75.265625 -7.984375 C 75.265625 -8.503906 75.09375 -8.765625 74.75 -8.765625 C 74.238281 -8.765625 73.679688 -8.332031 73.078125 -7.46875 C 72.472656 -6.613281 70.539062 -6.1875 67.28125 -6.1875 C 58.164062 -6.1875 53.609375 -6.53125 53.609375 -7.21875 L 54.125 -8.25 C 53.78125 -8.25 53.222656 -8.03125 52.453125 -7.59375 C 51.679688 -7.164062 51.296875 -6.78125 51.296875 -6.4375 C 51.296875 -5.75 52.753906 -5.40625 55.671875 -5.40625 C 56.535156 -5.40625 56.96875 -5.148438 56.96875 -4.640625 C 56.625 -4.117188 56.0625 -3.816406 55.28125 -3.734375 C 54.507812 -3.648438 53.863281 -3.390625 53.34375 -2.953125 C 52.832031 -2.523438 52.578125 -2.226562 52.578125 -2.0625 C 52.578125 -1.539062 53.179688 -1.28125 54.390625 -1.28125 C 58.515625 -1.28125 60.789062 -1.582031 61.21875 -2.1875 C 61.644531 -2.789062 62.117188 -3.09375 62.640625 -3.09375 C 62.804688 -3.09375 62.890625 -2.832031 62.890625 -2.3125 C 61.859375 -0.9375 60.828125 -0.25 59.796875 -0.25 C 58.765625 -0.25 58.207031 -0.0820312 58.125 0.25 C 58.039062 0.59375 57.050781 0.765625 55.15625 0.765625 Z M 61.09375 -36.859375 C 61.257812 -36.859375 61.472656 -36.941406 61.734375 -37.109375 C 61.992188 -37.285156 63.925781 -37.375 67.53125 -37.375 C 73.375 -37.375 77.328125 -38.148438 79.390625 -39.703125 L 79.140625 -89.4375 C 68.992188 -86.863281 62.890625 -85.492188 60.828125 -85.328125 C 59.453125 -85.328125 58.722656 -85.109375 58.640625 -84.671875 C 58.554688 -84.242188 58.171875 -83.988281 57.484375 -83.90625 C 56.796875 -83.820312 56.28125 -83.691406 55.9375 -83.515625 C 52.664062 -81.628906 50.773438 -78.28125 50.265625 -73.46875 C 50.085938 -72.78125 49.785156 -72.132812 49.359375 -71.53125 C 48.929688 -70.925781 48.71875 -69.765625 48.71875 -68.046875 C 48.71875 -66.328125 48.5 -65.296875 48.0625 -64.953125 C 47.632812 -64.609375 47.421875 -63.75 47.421875 -62.375 C 47.421875 -61 47.976562 -57.945312 49.09375 -53.21875 C 50.21875 -48.5 51.125 -45.363281 51.8125 -43.8125 C 52.5 -42.269531 53.441406 -40.941406 54.640625 -39.828125 C 55.847656 -38.710938 56.96875 -38.109375 58 -38.015625 C 59.03125 -37.929688 59.71875 -37.71875 60.0625 -37.375 C 60.40625 -37.03125 60.75 -36.859375 61.09375 -36.859375 Z M 61.09375 -36.859375 "/></g></g></g></svg>